<?xml version="1.0" encoding="UTF-8" standalone="no"?>
<svg width="24px" height="21px" viewBox="0 0 24 21" version="1.1" xmlns="http://www.w3.org/2000/svg" xmlns:xlink="http://www.w3.org/1999/xlink">
    <!-- Generator: Sketch 42 (36781) - http://www.bohemiancoding.com/sketch -->
    <title>Icon/App/Medium Copy</title>
    <desc>Created with Sketch.</desc>
    <defs>
        <path d="M25.1555615,5.778707 C25.2490202,5.82543637 25.28227,5.94217811 25.2275345,6.03122534 L17.8428231,18.0313609 L12.679881,9.64147785 L17.3049452,2.12564646 C17.3541254,2.04583073 17.4449699,2 17.5362229,2 C17.5386738,2 17.5410429,2.00073525 17.5434937,2.00081695 C17.5805831,2.00179728 17.6176725,2.00972167 17.6517392,2.02679586 L25.1555615,5.778707 Z M10.5439048,7.2080376 L17.7423523,18.9054943 L10.5439048,15.3062706 L10.5439048,7.2080376 Z M18.2334192,19.0161906 L25.5,7.2080376 L25.5,21.916026 C25.5,22.3194344 25.204837,22.5018587 24.8440732,22.3214768 L18.2334192,19.0161906 Z M9.79898525,5.80893404 C9.85862238,5.83875261 9.89628364,5.89977856 9.89628364,5.96644144 L9.89628364,21.9039351 C9.89628364,22.2016306 9.73550846,22.3789899 9.50627311,22.3789899 C9.42490518,22.3789899 9.33487761,22.3566055 9.24035684,22.3093043 L2.43731177,18.9077817 C2.19680255,18.7875271 2,18.4691629 2,18.2002239 L2,2.39834339 C2,2.30022805 2.02638739,2.22180113 2.07140117,2.16755584 C2.11739529,2.11208514 2.18275106,2.08169471 2.26003425,2.08169471 C2.31427954,2.08169471 2.37432515,2.09656314 2.43731177,2.1280973 L9.79898525,5.80893404 Z" id="path-1"></path>
    </defs>
    <g id="Symbols" stroke="none" stroke-width="1" fill="none" fill-rule="evenodd">
        <g id="Footer" transform="translate(-1094.000000, -514.000000)">
            <g id="Social" transform="translate(1018.000000, 512.000000)">
                <g id="Icon/App/Medium" transform="translate(74.000000, 0.000000)">
                    <rect id="Bounding-Box" x="0" y="0" width="28" height="24"></rect>
                    <mask id="mask-2" fill="white">
                        <use xlink:href="#path-1"></use>
                    </mask>
                    <use id="Mask" fill="#FFFFFF" fill-rule="evenodd" xlink:href="#path-1"></use>
                    <g id="Mixin/Fill/White" mask="url(#mask-2)" fill-rule="evenodd" fill="#FFFFFF">
                        <rect id="Box" x="0" y="0" width="28" height="24"></rect>
                    </g>
                </g>
            </g>
        </g>
    </g>
</svg>